<svg width="53" height="50" viewBox="0 0 53 50" fill="none" xmlns="http://www.w3.org/2000/svg">
<g id="bell 1" clip-path="url(#clip0_6_39)">
<g id="Group 1095">
<path id="Shape" d="M20.4874 39.9541V38.9166H12.2886C10.9853 38.9155 9.73568 38.4271 8.81343 37.5584C7.89118 36.6896 7.37158 35.5114 7.36846 34.2819V33.5C7.36397 32.5188 7.65131 31.5562 8.19784 30.7214C8.74437 29.8866 9.52816 29.2132 10.4601 28.7777C10.8799 28.5819 11.2391 28.2873 11.5032 27.9224C11.7672 27.5575 11.9272 27.1346 11.9677 26.6944L12.9438 16.5652C13.1286 14.6555 13.7643 12.8089 14.8044 11.1612C15.8444 9.51349 17.2623 8.10639 18.9541 7.04318C20.6459 5.97997 22.5686 5.28763 24.581 5.01699C26.5935 4.74634 28.6446 4.90425 30.5839 5.47913C29.9848 6.35894 29.5181 7.31296 29.1971 8.31386C28.3166 8.09352 27.4094 7.9824 26.4985 7.9833C23.9173 7.9729 21.4264 8.87892 19.5207 10.5214C17.6149 12.1638 16.4339 14.4224 16.2121 16.8486L15.236 26.9722C15.146 27.9364 14.7949 28.8626 14.2164 29.662C13.6379 30.4614 12.8514 31.1072 11.9323 31.5375C11.545 31.7183 11.2193 31.9981 10.9923 32.3451C10.7653 32.6921 10.6462 33.0922 10.6486 33.5V34.2875C10.649 34.6976 10.8216 35.0909 11.1288 35.3811C11.4359 35.6714 11.8524 35.835 12.2872 35.8361H40.7113C41.1466 35.8357 41.5639 35.6724 41.8717 35.3821C42.1794 35.0918 42.3525 34.6981 42.3529 34.2875V33.5C42.3544 33.0938 42.2351 32.6955 42.0087 32.3501C41.7823 32.0046 41.4578 31.726 41.072 31.5458C40.1511 31.1153 39.3632 30.4684 38.7841 29.6674C38.205 28.8663 37.8542 27.9382 37.7654 26.9722L37.3326 22.4764C38.4167 22.7765 39.5403 22.9304 40.6701 22.9333L41.0323 26.693C41.0763 27.1301 41.237 27.5495 41.4993 27.9121C41.7617 28.2747 42.1171 28.5687 42.5325 28.7666C43.4651 29.2021 44.2497 29.8752 44.7974 30.7099C45.3452 31.5445 45.6341 32.5072 45.6315 33.4889V34.2764C45.6303 35.5069 45.1115 36.6868 44.189 37.5568C43.2665 38.4268 42.0158 38.9159 40.7113 38.9166H32.5125V39.9486C32.5125 41.4529 31.8791 42.8957 30.7515 43.9594C29.6239 45.0232 28.0946 45.6208 26.5 45.6208C24.9054 45.6208 23.376 45.0232 22.2485 43.9594C21.1209 42.8957 20.4874 41.4529 20.4874 39.9486V39.9541ZM23.7661 39.9541C23.7826 40.6276 24.0779 41.2683 24.5886 41.7391C25.0994 42.2099 25.7852 42.4735 26.4993 42.4735C27.2133 42.4735 27.8991 42.2099 28.4099 41.7391C28.9206 41.2683 29.2159 40.6276 29.2324 39.9541V38.9166H23.7661V39.9541ZM40.2682 18.7986C39.0757 18.7348 37.9158 18.4074 36.8821 17.843L36.7864 16.8486C36.5519 14.296 35.2569 11.9344 33.1839 10.2791C33.3925 9.22315 33.8482 8.22436 34.5177 7.35552C36.0819 8.4312 37.3847 9.80944 38.339 11.3981C39.2934 12.9868 39.8773 14.7494 40.0518 16.568L40.2667 18.7972L40.2682 18.7986Z" fill="#929BB5"/>
<path id="Shape_2" d="M40.7143 18.8168C39.2001 18.8168 37.72 18.3932 36.4611 17.5996C35.2021 16.806 34.2209 15.6781 33.6415 14.3584C33.062 13.0387 32.9104 11.5865 33.2058 10.1856C33.5012 8.78458 34.2303 7.4977 35.301 6.48766C36.3716 5.47761 37.7357 4.78976 39.2207 4.51109C40.7058 4.23242 42.2451 4.37544 43.6439 4.92208C45.0428 5.46871 46.2384 6.3944 47.0796 7.58209C47.9208 8.76978 48.3698 10.1661 48.3698 11.5945C48.3698 13.51 47.5633 15.347 46.1276 16.7014C44.6919 18.0559 42.7447 18.8168 40.7143 18.8168Z" fill="#FF6359"/>
</g>
</g>
<defs>
<clipPath id="clip0_6_39">
<rect width="53" height="50" fill="white"/>
</clipPath>
</defs>
</svg>
