<svg width="27" height="30" viewBox="0 0 27 30" fill="none" xmlns="http://www.w3.org/2000/svg">
<g id="bxs:edit">
<path id="Vector" d="M23.3808 2.91666L27 6.54477L24.241 9.31181L20.6218 5.6837L23.3808 2.91666ZM10.125 19.8333H13.7442L22.5351 11.0207L18.916 7.39254L10.125 16.2052V19.8333Z" fill="#999999"/>
<path id="Vector_2" d="M23.375 23.4583H9.8225C9.79 23.4583 9.75625 23.4704 9.72375 23.4704C9.6825 23.4704 9.64125 23.4595 9.59875 23.4583H5.875V6.54167H14.4338L16.9338 4.125H5.875C4.49625 4.125 3.375 5.20767 3.375 6.54167V23.4583C3.375 24.7923 4.49625 25.875 5.875 25.875H23.375C24.038 25.875 24.6739 25.6204 25.1428 25.1672C25.6116 24.714 25.875 24.0993 25.875 23.4583V12.9845L23.375 15.4012V23.4583Z" fill="#999999"/>
</g>
</svg>
