<svg width="28" height="28" viewBox="0 0 28 28" fill="none" xmlns="http://www.w3.org/2000/svg">
<path id="Vector" d="M28 9.62506C28 14.9408 23.6907 19.25 18.375 19.25C17.7614 19.25 17.1615 19.1919 16.5798 19.0822L15.2666 20.5595C15.1435 20.698 14.9924 20.8089 14.8233 20.8848C14.6542 20.9608 14.471 21 14.2856 21H12.25V23.1875C12.25 23.9124 11.6624 24.5 10.9375 24.5H8.75V26.6875C8.75 27.4124 8.16238 28 7.4375 28H1.3125C0.587617 28 0 27.4124 0 26.6875V22.4186C0 22.0706 0.138305 21.7367 0.384398 21.4905L9.23294 12.642C8.91997 11.693 8.75 10.6789 8.75 9.625C8.75 4.30927 13.0592 5.4688e-05 18.3749 5.22406e-10C23.7064 -5.4687e-05 28 4.29357 28 9.62506ZM18.375 7C18.375 8.44977 19.5502 9.625 21 9.625C22.4498 9.625 23.625 8.44977 23.625 7C23.625 5.55023 22.4498 4.375 21 4.375C19.5502 4.375 18.375 5.55023 18.375 7Z" fill="#35555E"/>
</svg>
