<svg width="50" height="50" viewBox="0 0 50 50" fill="none" xmlns="http://www.w3.org/2000/svg">
<g id="msg 1" clip-path="url(#clip0_6_34)">
<g id="Group 2">
<path id="Shape" d="M24.6472 45.3786C21.6111 45.3864 18.6136 44.6973 15.8858 43.3644C12.7734 44.8782 9.32571 45.5716 5.87004 45.3786C5.29862 45.3786 4.6829 45.3658 4.04719 45.3415C3.76296 45.334 3.48654 45.2469 3.24939 45.0901C3.01224 44.9332 2.82388 44.713 2.70576 44.4544C2.58338 44.1993 2.53485 43.915 2.56565 43.6338C2.59645 43.3525 2.70536 43.0855 2.88005 42.8629C4.78952 40.5707 6.2345 37.9287 7.13433 35.0844C5.27632 31.7387 4.41551 27.9308 4.65373 24.1113C4.89194 20.2918 6.21923 16.6204 8.47854 13.5315C10.7379 10.4427 13.8347 8.06557 17.4026 6.6815C20.9705 5.29743 24.8602 4.96429 28.6115 5.7215C28.0136 6.61139 27.5461 7.58216 27.2229 8.60435C24.0453 8.11691 20.7945 8.54327 17.8501 9.83367C14.9056 11.1241 12.3889 13.2253 10.5936 15.8921C8.79828 18.5589 7.79847 21.6813 7.71083 24.8949C7.62319 28.1085 8.45134 31.2808 10.0986 34.0415C10.2964 34.3713 10.3637 34.7632 10.2872 35.1401C9.67787 37.6971 8.59227 40.1164 7.08719 42.2715C9.82985 42.3634 12.544 41.6902 14.9258 40.3272C15.1843 40.1425 15.4938 40.0426 15.8115 40.0415C16.0684 40.042 16.3212 40.1063 16.5472 40.2286C19.3205 41.7341 22.459 42.4356 25.6093 42.2542C28.7597 42.0728 31.7969 41.0158 34.3791 39.202C36.9614 37.3882 38.9861 34.8897 40.2255 31.9877C41.4648 29.0857 41.8696 25.8954 41.3943 22.7758C42.4165 22.4527 43.3873 21.9851 44.2772 21.3872C44.8627 24.2945 44.7955 27.2955 44.0805 30.1736C43.3655 33.0518 42.0204 35.7353 40.1424 38.0306C38.2644 40.3258 35.9003 42.1755 33.2207 43.4462C30.5411 44.717 27.6128 45.377 24.6472 45.3786ZM30.8086 31.0015H16.43C16.0295 30.9893 15.6495 30.8216 15.3705 30.534C15.0916 30.2464 14.9355 29.8615 14.9355 29.4608C14.9355 29.0601 15.0916 28.6752 15.3705 28.3875C15.6495 28.0999 16.0295 27.9323 16.43 27.9201H30.8072C31.2077 27.9323 31.5877 28.0999 31.8667 28.3875C32.1457 28.6752 32.3017 29.0601 32.3017 29.4608C32.3017 29.8615 32.1457 30.2464 31.8667 30.534C31.5877 30.8216 31.2091 30.9893 30.8086 31.0015ZM26.7058 22.7844H16.43C16.0216 22.7844 15.6299 22.6221 15.3411 22.3333C15.0523 22.0445 14.89 21.6528 14.89 21.2444C14.89 20.8359 15.0523 20.4442 15.3411 20.1554C15.6299 19.8666 16.0216 19.7044 16.43 19.7044H26.7058C27.1142 19.7044 27.5059 19.8666 27.7947 20.1554C28.0835 20.4442 28.2458 20.8359 28.2458 21.2444C28.2458 21.6528 28.0835 22.0445 27.7947 22.3333C27.5059 22.6221 27.1142 22.7844 26.7058 22.7844ZM40.2772 18.8186C38.5416 14.7184 35.2777 11.455 31.1772 9.72007C31.5136 8.72603 32.0619 7.81696 32.7843 7.05578C37.3076 9.0724 40.9257 12.69 42.9429 17.2129C42.1811 17.935 41.2716 18.4828 40.2772 18.8186Z" fill="#929BB5"/>
<path id="Shape_2" d="M37.9972 19.1914C36.5754 19.1914 35.1856 18.7698 34.0034 17.9799C32.8213 17.19 31.8999 16.0673 31.3558 14.7537C30.8117 13.4402 30.6694 11.9948 30.9467 10.6004C31.2241 9.20592 31.9087 7.92504 32.9141 6.9197C33.9194 5.91436 35.2003 5.22971 36.5947 4.95234C37.9892 4.67497 39.4346 4.81732 40.7481 5.36141C42.0617 5.9055 43.1844 6.82687 43.9742 8.00903C44.7641 9.19118 45.1857 10.581 45.1857 12.0028C45.1857 13.9093 44.4284 15.7378 43.0803 17.0859C41.7321 18.434 39.9037 19.1914 37.9972 19.1914Z" fill="#FF6359"/>
</g>
</g>
<defs>
<clipPath id="clip0_6_34">
<rect width="50" height="50" fill="white"/>
</clipPath>
</defs>
</svg>
