<svg width="70" height="65" viewBox="0 0 70 65" fill="none" xmlns="http://www.w3.org/2000/svg">
<g id="Pending">
<ellipse id="Ellipse 11" cx="35" cy="32.5" rx="35" ry="32.5" fill="#F3D950"/>
<path id="Vector" d="M35 24.8223C37.7486 24.8223 40.1749 26.0866 41.6156 28.0144H39V29.8384H45V24.3663H43V26.6458C41.1762 24.4317 38.2724 22.9983 35 22.9983C29.4771 22.9983 25 27.0815 25 32.1185H27C27 28.0889 30.5817 24.8223 35 24.8223ZM43 32.1185C43 36.1481 39.4183 39.4147 35 39.4147C32.2514 39.4147 29.8251 38.1503 28.3844 36.2226H31V34.3986H25V39.8707H27V37.5912C28.8238 39.8053 31.7276 41.2387 35 41.2387C40.5228 41.2387 45 37.1554 45 32.1185H43Z" fill="white"/>
</g>
</svg>
