<svg width="70" height="65" viewBox="0 0 70 65" fill="none" xmlns="http://www.w3.org/2000/svg">
<g id="Processing">
<ellipse id="Ellipse 11" cx="35" cy="32.5" rx="35" ry="32.5" fill="#63C7FF"/>
<path id="Vector" d="M31.9646 36.8563C31.7219 38.4032 30.2632 39.5923 28.5 39.5923C26.7368 39.5923 25.2781 38.4032 25.0354 36.8563H24V25.912C24 25.4083 24.4477 25 25 25H39C39.5523 25 40 25.4083 40 25.912V27.7361H43L46 31.4349V36.8563H43.9646C43.7219 38.4032 42.2632 39.5923 40.5 39.5923C38.7368 39.5923 37.2781 38.4032 37.0354 36.8563H31.9646ZM38 26.824H26V34.1663C26.6353 33.575 27.5207 33.2082 28.5 33.2082C29.8962 33.2082 31.1015 33.9538 31.6632 35.0322H37.3368C37.5045 34.7103 37.7296 34.4179 38 34.1663V26.824ZM40 32.2962H44V32.0362L41.9917 29.5601H40V32.2962ZM40.5 37.7683C41.1531 37.7683 41.7087 37.3876 41.9146 36.8563C41.9699 36.7136 42 36.5601 42 36.4003C42 35.6447 41.3284 35.0322 40.5 35.0322C39.6716 35.0322 39 35.6447 39 36.4003C39 36.5601 39.0301 36.7136 39.0854 36.8563C39.2913 37.3876 39.8469 37.7683 40.5 37.7683ZM30 36.4003C30 35.6447 29.3284 35.0322 28.5 35.0322C27.6716 35.0322 27 35.6447 27 36.4003C27 36.5601 27.0301 36.7136 27.0854 36.8563C27.2913 37.3876 27.8469 37.7683 28.5 37.7683C29.1531 37.7683 29.7087 37.3876 29.9146 36.8563C29.9699 36.7136 30 36.5601 30 36.4003Z" fill="white"/>
</g>
</svg>
