<svg width="26" height="28" viewBox="0 0 26 28" fill="none" xmlns="http://www.w3.org/2000/svg">
<path id="staff" d="M13 14C17.1031 14 20.4286 10.8664 20.4286 7C20.4286 3.13359 17.1031 0 13 0C8.89688 0 5.57143 3.13359 5.57143 7C5.57143 10.8664 8.89688 14 13 14ZM18.2 15.75H17.2308C15.9424 16.3078 14.5089 16.625 13 16.625C11.4911 16.625 10.0634 16.3078 8.7692 15.75H7.8C3.49375 15.75 0 19.0422 0 23.1V25.375C0 26.8242 1.24777 28 2.78571 28H23.2143C24.7522 28 26 26.8242 26 25.375V23.1C26 19.0422 22.5063 15.75 18.2 15.75Z" fill="#35555E"/>
</svg>
