<svg width="80" height="65" viewBox="0 0 80 65" fill="none" xmlns="http://www.w3.org/2000/svg">
<g id="Total Order">
<ellipse id="Ellipse 11" cx="39.9315" cy="32.5" rx="39.8093" ry="32.5" fill="#3B76EF"/>
<path id="Vector" d="M30.1236 36.3333V24.9048H28V23H31.1854C31.7719 23 32.2473 23.4264 32.2473 23.9524V35.381H45.4546L47.5782 27.7619H34.3709V25.8571H48.9382C49.5246 25.8571 50 26.2835 50 26.8095C50 26.8874 49.9894 26.965 49.9683 27.0405L47.3137 36.5643C47.1956 36.9883 46.7709 37.2857 46.2836 37.2857H31.1854C30.599 37.2857 30.1236 36.8593 30.1236 36.3333ZM32.2473 43C31.0744 43 30.1236 42.1472 30.1236 41.0952C30.1236 40.0432 31.0744 39.1905 32.2473 39.1905C33.4201 39.1905 34.3709 40.0432 34.3709 41.0952C34.3709 42.1472 33.4201 43 32.2473 43ZM44.9891 43C43.8162 43 42.8654 42.1472 42.8654 41.0952C42.8654 40.0432 43.8162 39.1905 44.9891 39.1905C46.162 39.1905 47.1127 40.0432 47.1127 41.0952C47.1127 42.1472 46.162 43 44.9891 43Z" fill="white"/>
</g>
</svg>
